<svg width="264" height="200" viewBox="0 0 264 200" fill="none" xmlns="http://www.w3.org/2000/svg"><g clip-path="url(#clip0)"><g clip-path="url(#clip1)"><path d="M41.3.1c-4.1.2-8.1.7-12.1 1.6-.6.1-1 .6-1 1.1-.6.4-1 1.2-.5 2 2.8 4.8 4.9 15.9 6.4 21.2.4 1.5 2.5 1.4 2.9 0 1.9-6 3.8-18 5.8-24 .2-.9-.6-2-1.5-1.9zM60.8 58.6c-3.1-4.1-6.8-8-10.5-11.7-3.4-3.4-7.2-7.4-11.8-9a9.6 9.6 0 00-9.5 1.8l-2.9 2-5.6 4.3c-3.7 3-7.1 6.3-10.3 9.9-.4.4-.5 1-.3 1.6-.5.6-.7 1.6 0 2.4 5.6 6.9 11.4 13.5 17.5 19.9l4.7 4.8c.8.8 1.7 1.6 3 1.4 1.2-.2 2.2-1.1 3.1-1.8l11-8.2a105 105 0 005.3-4c1-.8 1.9-1.8 2.5-3a9.9 9.9 0 004.7-4.1c1-2 .5-4.4-.9-6.3zM262.4 62c.4-.8.2-1.6.2-2.5l-.2-2.2c-.1-1.3-1.5-1.9-2.6-1.1l-9.9 8.4-.3.1c-.7.3-1.3 1-1 1.8.2.6.8 1.1 1.4 1.1.4.1.8 0 1.2-.2l5.6-1.5 3.2-.8c1.1-.3 2-.6 2.5-1.8.2-.4.1-.8-.2-1.2l.1-.1zM211.3 17.6c-.1-1.2-.1-2.9-1.4-3.6-1.4-.7-3.3.7-4.5 1.3-3.2 1.5-6.2 3.3-9.2 5.1l-.5.5c-.7.5-1.1 1.5-.3 2.3l3.8 4.2c2.7 3.7 5.4 7.5 8.2 11.1.3.4.7.6 1 .7l1.3 1.8c.8 1.2 2.8.8 2.8-.8 0-7.5-.4-15-1.2-22.6zM219.6 100.9l3.6-5.9c2.4-3.9 4.7-7.8 6.9-11.8l3.2-6c1-2 2.3-4.2 1.4-6.6-.4-1.2-1.3-2.1-2.1-3l-2.4-2.5c-1.6-1.7-3.3-3.2-5-4.8a84 84 0 00-10.9-8.2c-.5-.3-1-.2-1.5.1-.7-.4-1.5-.3-2.1.6-4.7 7.9-9 16-13.2 24.3l-3.1 6.4c-.5 1.1-1 2.2-.6 3.6.4 1.2 1.4 2 2.3 2.8l9.5 9.4c1.5 1.5 3 3.1 4.6 4.5 1.3 1.2 2.9 2.2 4.6 1.7 2.4-.5 3.6-2.6 4.8-4.6z" fill="#FFD000"/><path d="M235 72.3c-4.3-4.5-9-8.5-13.9-12.5l-3-2.5c-.8-.6-1.5-1.5-2.4-1.9a3 3 0 00-2.9.1c-2.1 1.1-3.4 3.6-4.5 5.5a94.4 94.4 0 00-4.5 9c-1.3 2.9-2.6 5.7-4.1 8.5-.5.9-1.1 2.1-1.6 2.7.1-.1-.7.7-.3.4-.9.7-1.3 1.7-1.5 2.9-.5 3.1 3 5 5.1 6.7l7.7 6.4 3.8 3.2c1.2 1 2.3 2.2 3.7 2.9 2.3 1.1 4.5-.1 6-1.9 1.8-2.1 2.9-4.7 4.2-7l3.6-6.2 4.2-7.4c.8-1.4 1.8-3 2.1-4.6.2-1.8-.6-3.1-1.7-4.3-1.3-1.4-3.4.7-2.1 2.1 1.1 1.2.7 2 0 3.4l-2 3.7-3.2 5.7-5.6 9.9c-.7 1.2-2.3 4.6-4.2 3.9-1.2-.5-2.2-1.7-3.1-2.5l-3.6-3-6.9-5.8-3.4-2.9-1.2-1.1c-.2-.2-.3-.3-.3-.7 0-.1.3-1.2.1-.9 0 0-.2.2-.1 0l.4-.3.3-.2.9-1.1c.6-.8 1-1.6 1.5-2.5 1.3-2.4 2.5-5 3.6-7.5l4-8.2c1.1-2 2.2-4.2 3.7-5.7.4-.4.2-.3.8-.6.1-.1.1-.1-.1 0l.3-.1c-.7 0-.2.1-.1 0 0-.1-.2 0-.1 0l-.1-.1c.4.5 1 .9 1.5 1.2l3.3 2.7c4.8 4 9.5 8 13.9 12.5 1 1.6 3.2-.5 1.8-1.9z" fill="#1B1B20"/><path d="M214.5 54.6l-.5-.9.2.4-.5-1.7.1.4v-1.4c0-.4-.2-.8-.4-1.1-.3-.3-.7-.5-1.1-.4-.9 0-1.4.7-1.5 1.5a8 8 0 001.2 4.8c.2.3.5.6.9.7.4.1.8.1 1.2-.2.5-.5.9-1.4.4-2.1z" fill="#1B1B20"/><path d="M210.6 49.5a329.9 329.9 0 00-17.9 30.3c-1.2 2.3-2.6 4.9-2 7.5.6 2.6 3.2 4.3 5.1 5.9l13.9 12c2 1.7 4.4 4.5 7.3 3.6 2.5-.7 3.6-3.5 4.5-5.7.7-1.8-2.2-2.6-2.9-.8-.5 1.2-1.6 4.2-3.3 3.5-1-.4-1.9-1.4-2.8-2.1l-3-2.6-12.2-10.6c-1.6-1.4-4.1-2.8-3.8-5.2.3-2.3 2-4.6 3-6.7a281.8 281.8 0 0116.6-27.7c1.1-1.5-1.5-3-2.5-1.4z" fill="#1B1B20"/><path d="M212.2 51.3L226.3 62c2.2 1.7 4.3 3.4 6.2 5.4.8.7 2.3 1.7 2.2 2.8-.1 1.4-.5 2.8-.8 4.2-.3 1.9 2.5 2.7 2.9.8l.8-4.6c.2-1.4-.3-2.6-1.3-3.7a55 55 0 00-6.7-6.1l-15.9-12.1c-1.5-1.2-3 1.4-1.5 2.6zM196.8 84.1l-4.4 1.7c-.4.1-.7.3-.9.7-.2.3-.3.8-.2 1.2.1.4.3.7.7.9.3.2.8.3 1.2.2l4.4-1.7c.4-.1.7-.3.9-.7.2-.3.3-.8.2-1.2-.1-.4-.3-.7-.7-.9-.4-.2-.8-.4-1.2-.2zM217.2 69.6l-.5-.4-1.8 2.4 3.4 1.9 1.5 1c.3.2 1.1.6 1.3 1l-.2-.8.4-.7c-.7.8-1.8 1.4-2.7 1.9l-3.2 1.6-3.1 1.2c-1 .3-2.3.5-3.3 1.1-1.2.7-1.4 2.3-.5 3.4.7.9 1.9 1.5 2.8 2.1 2.1 1.3 4.4 2.3 6.7 3.2 1.8.6 2.6-2.3.8-2.9-1.5-.5-2.9-1.2-4.4-1.9l-2-1.2-1-.6-.4-.3-.2-.1c-.1-.1-.1-.1 0-.1v.8c-.5.3-.6.4-.3.3l.4-.1.7-.2 1.5-.5 2.9-1.1c2-.8 3.9-1.7 5.6-3 .8-.6 1.9-1.2 2.2-2.3.3-1.3-.7-2.1-1.6-2.8a30.8 30.8 0 00-5.8-3.5c-.7-.3-1.5-.2-1.9.4-.4.6-.5 1.5.1 2l.5.4c.6.5 1.5.6 2.1 0 .5-.6.6-1.7 0-2.2zM110.4 121.9c-2.3 2.1-3.1 4.9-3.9 7.8-.8 3-2 5.6-4.8 7.1a51.2 51.2 0 01-10.1 3.8c-3.7 1.1-7.4 2-11.1 2.8-7.7 1.7-15.4 3.2-22.8 5.7-7.4 2.6-14.7 5.6-22.6 6.4-3.7.4-7.6.3-11.2-.6-1.6-.4-3.2-.9-4.5-2-.9-.8-2.1-2.2-1.2-3.4.8-1.1 2.6-1.3 3.8-1.5l5.7-1.2a175.2 175.2 0 0033.5-10.5 84.2 84.2 0 0016.3-8.5c5-3.5 9.3-8 11.9-13.6 2.3-5.1.6-10.7-1.2-15.7l-3.3-8.1a55 55 0 01-2.5-8.8 62 62 0 01-1-23.9 49.9 49.9 0 0138-39.8 31.4 31.4 0 0120.3 1.1c3.4 1.5 6.3 3.8 9 6.2a113 113 0 017.9 7.6 35 35 0 016.4 9.3c1.6 3.4 2.7 7.1 3.5 10.8a89.8 89.8 0 01-5.5 54.5c-.8 1.8 1.8 3.3 2.6 1.5a92.8 92.8 0 007.5-45.3 69 69 0 00-5.4-22.9c-3.3-7.1-9-12.5-14.7-17.6-2.9-2.6-5.9-5-9.4-6.7a32.2 32.2 0 00-10.1-2.7 53.2 53.2 0 00-38.3 15 53.6 53.6 0 00-14.4 49.7c.6 3.5 1.3 7.2 2.5 10.6 2 5.6 4.9 10.9 6 16.8.5 2.6.3 5-.9 7.4a28.2 28.2 0 01-5.6 7.7 55.4 55.4 0 01-15.9 10.2 178.2 178.2 0 01-33.4 11.4L20 145c-3 .7-5.9 2.9-4.9 6.3.9 3.3 4.4 5.1 7.4 5.9 16.2 4.5 31.6-5.4 46.9-8.8 7.9-1.8 15.8-3.1 23.5-5.5 3.5-1.1 7.3-2.2 10.5-4.1 2.8-1.6 4.6-4.1 5.6-7.2.9-2.9 1.3-6 3.6-8.2 1.4-.7-.8-2.8-2.2-1.5z" fill="#1B1B20"/><path d="M157 104c5.8 9.9 14.4 17.5 22.2 25.7 1.9 2 4 3.9 6.6 4.9 2.4.8 5.1.7 7.5.1 5.1-1.3 9.1-4.8 12.9-8.3 4-3.7 8.3-7.7 13.9-8.6l-1.7-2.2c-1.8 2.8-4.5 4.8-6.5 7.5a30 30 0 00-3.7 6.8c-2 4.8-3.4 9.9-5.9 14.5a18 18 0 01-4.7 5.6c-2.8 2-6.2 2.7-9.6 2.7-7.1 0-13.3-3.2-18.6-7.8a87.3 87.3 0 01-8-8.1c-2.6-2.8-5.4-5.7-6.8-9.4-.7-1.8-3.6-1-2.9.8 1.3 3.5 3.6 6.3 6.1 9 2.4 2.7 4.8 5.4 7.4 7.8a34.8 34.8 0 0018.5 10.2c6.9 1 14.2-.3 18.8-6 3.6-4.4 5.3-10 7.2-15.2a42 42 0 013.9-8.3c2.1-3.2 5.3-5.5 7.3-8.7.8-1.2-.5-2.4-1.7-2.2-9.9 1.6-15 11.4-23.4 15.6a13.5 13.5 0 01-7.1 1.6c-2.7-.2-4.8-1.8-6.6-3.6-3.8-3.8-7.6-7.7-11.3-11.7a78.9 78.9 0 01-11.3-14.4c-.9-1.5-3.5.1-2.5 1.7zM116.1 84.9a17.9 17.9 0 0017.9 0c1.7-1 .1-3.6-1.5-2.6a14.5 14.5 0 01-14.8 0c-1.7-1-3.2 1.6-1.6 2.6z" fill="#1B1B20"/><path d="M123.7 87.1c.4 1.1.4 2.4-.5 3.3a3 3 0 01-1.3.9c-.7.3-1.5.2-2.2.6-2.7 1.2-2.7 5-.7 6.8 2.3 2.1 5.7 1.7 8.4.4 2.6-1.3 5.1-3.5 6.6-6 1.8-3 2.3-6.7.7-9.8-.9-1.7-3.5-.2-2.6 1.5 2.3 4.5-1.9 9.3-5.6 11.4-1.5.9-4.3 1.8-5.7.1-.4-.5-.4-1.2 0-1.5.2-.2.7-.2 1.1-.3l1.8-.6a6.2 6.2 0 002.9-7.5c-.3-.8-1-1.3-1.8-1-.8 0-1.3.9-1.1 1.7z" fill="#1B1B20"/><path d="M134 84.7c-.1-1.2-1.8-1.5-2.2-.3l-.3 1.2h-.1l-.5.3h-.3l-.4-.1c-.3 0-.6.1-.8.3-.9-.7-2.1-.4-2.8.6-.4.5-.5 1.2-.5 1.8v1l.1 1-1.4 1.4c-.8.6-1.9.9-2.8 1.4h-.3c-.9.3-1.5 1.1-1.4 2l.2.7c.1.5.5 1 .9 1.3l.3.4c.4.4 1 .4 1.4.1l1.2-.3.2-.2.7.1c.3.3.7.5 1.1.3l.3-.1a14.3 14.3 0 006.7-7.2l.1-.6c.4-1.7.7-3.4.6-5.1zM213.1 135.6a88.7 88.7 0 00-3.4 20.5c-.1 1.9 2.9 1.9 3 0 .4-6.7 1.5-13.3 3.3-19.7.6-1.9-2.3-2.7-2.9-.8zM203.8 115l-8.2 3.7c-.7.3-.9 1.4-.5 2.1.5.7 1.3.9 2.1.5l8.2-3.7c.7-.3.9-1.4.5-2.1-.6-.7-1.4-.9-2.1-.5zM193.3 22.6c4.9 7.4 10.5 14.4 16.9 20.6 1.4 1.4 3.5-.8 2.1-2.1-6.2-6-11.7-12.7-16.4-20-1-1.6-3.6-.1-2.6 1.5z" fill="#1B1B20"/><path d="M202 23.6c2.4 5.7 4.9 11.3 7.5 16.9.3.7 1.4.9 2.1.5.8-.4.9-1.3.5-2.1-2.6-5.6-5-11.3-7.5-16.9-.3-.7-1.4-.9-2.1-.5-.8.5-.9 1.3-.5 2.1z" fill="#1B1B20"/><path d="M209.9 13.9l.1 26c0 1.9 3 1.9 3 0l-.1-26c0-1.9-3-1.9-3 0z" fill="#1B1B20"/><path d="M193.8 21.8a21 21 0 005.7 3.1c1.8.6 4.6 1.7 6.2.2a12 12 0 001.8-2.6l1.8-3a62 62 0 003.2-6.3l-2.7-1.2.2-.4c-.1.2.2-.1 0 0l-.5.3-1.4.6-3.8 1.4c-3.3 1.1-6.2 3.1-9.5 3.9-1.9.5-1.1 3.4.8 2.9 2.3-.6 4.4-1.7 6.6-2.8 1.2-.6 2.3-1 3.6-1.4l4.3-1.6c1.1-.5 2.3-1 2.8-2.2.7-1.6-2-2.7-2.7-1.2a76.1 76.1 0 01-5.8 10.5l-.4.7c.1-.1-.1-.1-.2-.1l-.7-.1-2.7-.8a17 17 0 01-4.7-2.7c-.6-.5-1.7-.1-2.1.5-.8 1-.4 1.8.2 2.3zM202.2 46l-4.8-6c-.5-.6-1.6-.6-2.1 0-.6.6-.5 1.5 0 2.1l4.8 6c.5.6 1.6.6 2.1 0 .6-.6.6-1.5 0-2.1zM220.2 131.4c1.1 12.8 4.6 25.3 10.4 36.8.9 1.7 3.5.2 2.6-1.5-5.5-11-8.9-23-10-35.3-.1-1.9-3.1-1.9-3 0zM246.8 68.8c5.3-4.2 9.9-9.3 15.7-13l-2.2-.9c.5 2.8 1.2 5.7 1.6 8.5v-.8.1l.5-.5c-1.1.8-2.4 1.1-3.7 1.5l-4.2 1a52 52 0 01-8.8 1.4c-1.9.1-1.9 3.1 0 3a66.1 66.1 0 0017.7-4c1.3-.7 1.5-1.7 1.2-3.1l-1.5-7.9c-.2-.9-1.4-1.4-2.2-.9-6 3.8-10.8 9-16.3 13.4-.6.5-.5 1.6 0 2.1.7.7 1.6.6 2.2.1zM245.9 61.3l5.9-5.3c.6-.5.6-1.6 0-2.1-.6-.6-1.5-.6-2.1 0l-5.9 5.3c-.6.5-.6 1.6 0 2.1.6.6 1.4.6 2.1 0zM248.7 76.5c1.3-.1 2.5-.1 3.8.1l-.4-.1 1 .2c.4.1.8.1 1.2-.2.3-.2.6-.5.7-.9.2-.7-.2-1.7-1-1.8-1.7-.3-3.4-.4-5.1-.3-.4 0-.8.1-1.1.4-.3.3-.5.7-.4 1.1-.2.8.5 1.6 1.3 1.5zM258.5 77.1c1.9 0 1.9-3 0-3-2 0-2 3 0 3zM113.7 61.1a2 2 0 000 1.1v.2l.2.5.7.8.3.2.3.1.5.1.7-.2.3-.1.4-.3c.4-.4.6-1 .6-1.5v-.3l-.1-.3-.2-.5-.3-.4-.1-.1-.1-.1-.4-.3c-.3-.2-.6-.2-1-.3h-.1l-.5.1h-.1l-.5.2-.1.1-.4.3-.3.4-.1.1-.3 1v.1l.1.5.2.5.1.1.4.5.6.4.6.2.7.1.7-.1.6-.3.4-.3.2-.3.4-.6.2-.5v-1.5l-.1-.2v-.1l-.1-.2-.2-.4-.2-.2-.4-.3-.6-.2-.7-.1-.7.1-.6.3c-.8.5-1.3 1.3-1.3 2.2l.1.5v.2c.1.4.3.7.7.9l.6.2h.6c.4-.1.7-.3.9-.7.2-.3.3-.8.2-1.2v-.2l.1.4v-.2l-.1.4.1-.2-.2.4.1-.2-.2.3.2-.2-.3.2.3-.2-.4.2.3-.1-.4.1h.3l-.4-.1.2.1-.4-.2.2.1-.3-.2.1.1-.2-.3-.2-.4.1.4-.1-.4v.5l.1-.4-.1.4.2-.4-.2.3.2-.3-.2.2.3-.2-.2.1.4-.2-.3.1.4-.1h-.4l.4.1-.3-.1.4.2-.3-.1.3.2-.2-.2.2.3-.1-.2.2.4-.1-.2.1.4v-.2l-.1.4v-.2l-.2.4.1-.2-.2.3.2-.2-.3.2.2-.1-.4.2.2-.1-.4.1h.2l-.4-.1h.2l-.4-.2.1.1-.3-.2.2.2-.2-.3.1.1-.2-.4v.2l-.1-.4v.2l.1-.4-.1.2.2-.4-.1.2.2-.3-.1.1.3-.2-.1.1.4-.2h-.1l.4-.1h-.2l.4.1h-.2l.4.2-.2-.1.3.2-.2-.2.2.3-.1-.2.2.4v-.2l.1.4v-.2l-.1.4v-.1-.6l-.2-.6c-.2-.3-.5-.6-.9-.7-.4-.1-.8-.1-1.2.2l-.3.2c.4.2.3.4.2.7zM132.8 59.3c-.2.4-.3.7-.3 1.1l.1.6.1.2.2.5.3.5.6.5.2.1.5.2.4.1h.4c.4 0 .7-.1 1.1-.3l.4-.3.3-.4.1-.1.2-.5.1-.6v-.2l-.1-.5V60l-.3-.7-.4-.5c-.3-.3-.5-.4-.9-.5-.6-.2-1.2-.1-1.8.2l-.1.1-.4.3-.3.4-.1.2-.3.7-.1.7.1.5v.2l.2.5.1.2.8.8.5.2.2.1h1.2l.2-.1.5-.2.2-.1.5-.4.1-.2.3-.5.3-.7.1-.6v-.1-.1l-.1-.4c0-.2-.1-.4-.3-.5-.2-.2-.4-.5-.7-.6-.4-.2-.7-.3-1.1-.3h-.2l-.6.1-.7.3a3 3 0 00-.8.8l-.2.5v.1c-.1.4 0 .8.2 1.2.1.3.4.5.6.6h.1l.4.2h1.1c.2 0 .5-.1.7-.3l.4-.3.1-.1.3-.4.2-.5.1-.5v-.1l-.1-.4c0-.2-.1-.4-.3-.5l-.3-.3-.5-.3c-.5-.2-1.2-.2-1.7 0s-1.1.5-1.4.9l-.3.5-.1.6c0 .4.2.8.4 1.1.3.3.7.5 1.1.4l.4-.1.7-.4.2-.2-.3.2.3-.2-.4.2.4-.1-.4.1h.4l-.4-.1.2.1-1.1-1.4v.1l.1-.4v.1l.2-.4-.1.1.2-.3-.1.1.3-.2-.2.1.4-.2-.2.1.4-.1h-.2l.4.1h-.1l.4.2-.1-.1.3.2-.1-.1.2.3.2 1.2V61l-.2.4.1-.2-.2.3.2-.2-.3.2.2-.1-.4.2.3-.1-.4.1h.3l-.4-.1.3.1-.4-.2.2.1-.3-.2.1.1-.4-1.1v.3l.1-.4-.1.3.2-.4-.2.3.2-.3-.3.3.3-.2-.3.2.4-.2-.3.1.4-.1h-.3l.4.1-.3-.1.4.2-.2-.1.3.2-.2-.2.2.3-.1-.2.2.4-.1-.3.1.4v-.3l-.1.4.1-.4-.2.4.2-.3-.2.3.2-.2-.3.2.2-.1-.4.2.2-.1-.4.1h.2l-.4-.1.2.1-.4-.2.2.1-.3-.2.2.2-.2-.3.2.3-.2-.4.1.4-.1-.4v.3l.1-.4-.1.2.2-.4-.1.2.2-.3-.1.1.3-.2-.2.1.4-.2-.2.1.4-.1h-.2l.4.1-.3-.1.4.2-.3-.2.3.2-.3-.3.2.3-.1-.3.2.4-.1-.2.1.4v-.2l-.1.4.1-.2-.2.4.2-.6v-.6a2 2 0 00-.7-.9c-.3-.2-.8-.3-1.2-.2-.5.1-.9.3-1.1.7zM84.1 108.1c-.7 5-6.3 6.3-10.6 5.7-2.8-.4-5.5-1.4-8.2-2.2l-8.2-2.5c-5.5-1.6-11-3.2-16.4-5.1a27.2 27.2 0 01-11.2-7.7 22.8 22.8 0 01-3.6-5.7c-.8-1.7-1.2-3.8-2.9-4.9-1.9-1.2-3.9-.3-5.1 1.4a13.7 13.7 0 00-2 6.5c-.3 4.8 3.4 8.5 6.6 11.5 3.3 3.2 6.1 7 10.4 9 2.7 1.3 5.6 2.2 8.3 3.6 2.5 1.2 4.9 2.6 7.3 4.1 4.7 2.9 9 6.4 12.1 11.1 1.1 1.6 3.7.1 2.6-1.5-2.6-4-6.1-7.2-9.9-10-4-2.9-8.4-5.5-13-7.4-2.4-1-4.9-1.8-7.1-3.1-2-1.1-3.6-2.8-5.2-4.4l-4.8-4.8a13.6 13.6 0 01-3.9-5.3c-.8-2.2-.3-4.7.6-6.8.2-.5.7-1.6 1.4-1.4.7.1 1.1 1.5 1.3 2.1a28 28 0 007.6 11c3.5 3.1 7.5 5 12 6.5l16.3 5 9 2.8c2.8.9 5.8 1.7 8.8 1.6 4.7-.2 9.9-3 10.6-8 .4-2.2-2.5-3-2.8-1.1zM125.5 139.3a56.3 56.3 0 01-8.5 20.9c-2 3-4.2 5.8-5.9 9a23.5 23.5 0 00-2.9 10.7c-.2 4.6.6 9.1.2 13.7l2.3-1.3a16.9 16.9 0 01-7.9-19.1c1.2-4.2 3.5-8.1 4.1-12.5a21.4 21.4 0 00-9.5-20.6c-1.6-1.1-3.1 1.5-1.5 2.6 6.3 4 9.5 12.2 7.7 19.4-1.1 4.3-3.5 8.2-4.2 12.6a20 20 0 009.9 20.1c1 .6 2.2-.2 2.3-1.3.3-4-.2-7.9-.3-11.8 0-3.8.7-7.4 2.5-10.8 1.7-3.2 3.9-6 5.8-9a60.9 60.9 0 008.9-21.8c.3-1.9-2.6-2.7-3-.8z" fill="#1B1B20"/><path d="M124.9 126.4c.9 5.8-1 11.7.4 17.5.6 2.4 1.7 4.8 3.6 6.5 1.6 1.5 3.6 2.4 5.7 3.2 3.8 1.4 8.1 2.2 9.8 6.2a28 28 0 011.2 12.9l-.7 5.5c-.6 3.1-1.4 6.1-1.5 9.3-.1 4.5 2.2 9.8 7 10.9 1.1.2 2.3.3 3.1-.5 1-.9.7-2.2.6-3.4-.3-2.9 0-5.7.9-8.5 1.8-5.5 6.5-9.2 8.8-14.4 5-11.4 1-23.9-3.2-34.9-.7-1.8-3.6-1-2.9.8 3.5 9.2 7.2 19.6 4.5 29.4a24 24 0 01-3.1 6.9c-1.5 2.3-3.5 4.4-4.9 6.8a22.9 22.9 0 00-3 14.9c.2.9 0-.1.2.1l-.6-.1c-.5-.1-.9-.3-1.3-.6a7.7 7.7 0 01-2.1-2.3 11.1 11.1 0 01-1-7.2c.3-2.6 1-5.1 1.4-7.6l.7-5.6c.3-4.1.3-8.5-1.1-12.3a11 11 0 00-2.9-4.7 15.2 15.2 0 00-5.3-2.9c-2.1-.8-4.4-1.3-6.4-2.4a9.3 9.3 0 01-4.5-5.4c-1.9-6 .3-12.5-.7-18.6-.1-2.2-3-1.4-2.7.5zM89.4 42.4c-.3-1.3-2.1-1.4-2.7-.4-4.4 7.6-7 16.2-7.6 25-.1.9.7 1.4 1.4 1.4l-.2.3c-.3.1-.5.3-.7.6l-.5.9c-.9 1.5 1.1 3 2.4 1.8 1.8-1.7 2.8-4.1 3.8-6.3 1.1-2.5 2.2-5 3-7.6 1.6-5 2.3-10.4 1.1-15.7zM90.3 92.2c.2-1.1.1-2.2-.2-3.2l-.2-.5-.2-.8a7.6 7.6 0 00-2.2-3l-.9-1.7-.3-.6-2.2-4c-.5-.8-.9-1.5-1.8-1.8-1-.4-2-.2-2.7.6-1.2 1.3-.4 3.5-.1 5l1.4 4.6 2.4 6.8c.7.2 1.4.6 1.7 1.3l2 4.7.3.7a6.7 6.7 0 003.2-4.3c0-1.4 0-2.6-.2-3.8zM168.1 49.8l-.5-.2-1.5-5.6-1.5-4.8c-.6-1.8-1.5-3.6-3.7-3.1-.9.2-1.4 1.1-1.5 1.9-.2 1.5-.2 3-.1 4.5l-.4.3.2 1.2.4 6.6c.3 3.5.2 7.6 2.1 10.7.9 1.5 2.4 2.8 4.2 2.6 1.7-.2 2.8-1.6 3.3-3.1.9-3.4-.2-7.6-1-11zM170 69.5c.1-.3.1-.8-.1-1.2a2.6 2.6 0 00-3.7-.9c-1.4.8-1.9 2.7-2.5 4.1a37.9 37.9 0 00-2.5 9.9 12 12 0 00.4 4.6c.5 1.4 1.4 3.2 3 3.7 3.4 1.1 4.5-3.8 4.3-6.3l.2-.1c.4-.4.5-.9.6-1.4l.5-6.1c0-.5-.3-1.1-.6-1.4l-.2-.2c.5-.7 1-1.4 1.7-2.1.9-1.1 0-2.5-1.1-2.6zM156.7 35.2c-.3-1.2-.9-2.4-1.4-3.6l-.3-.8.1-.4c.3-1 .3-1.9-.5-2.6v-.1c.1-1.1-1-2-2-2-1.2 0-1.9.9-2 2v.7c-1.2 1.5-1.3 3.9-1.2 5.6.1 1.5.4 3 .9 4.4.2 2.1.9 4.2 3.1 4.8.7.2 1.5 0 1.9-.5 2-1.9 2.2-4.9 1.4-7.5zM102.6 142H103.8h.1l.7.2c-.3-.1 0 0 .1.1l.3.2.3.2.1.1.5.6.1.1.2.3.2.3.1.2.1.4v1l-.1.4-.1.4-.1.2-.1.2-.2.3-.2.3c-.1.1 0 .1 0-.1l-.1.1-.5.5c-.1.1-.1.1.1 0l-.2.1-.4.2c-.7.4-1 1.4-.5 2.1.5.7 1.3.9 2.1.5 2.6-1.4 4-4.6 3.1-7.4a6.4 6.4 0 00-6.8-4.5c-.8.1-1.5.6-1.5 1.5 0 .7.7 1.6 1.5 1.5z" fill="#1B1B20"/><path d="M107.5 150.5c-.4.1 0 0 0 0 .4 0-.2-.1.2 0l.3.1h-.1l.2.1.3.2c-.3-.1 0 0 .1.1l.3.3c-.1-.2 0-.1 0 .1l.2.3c.2.3 0-.2 0 .1l.1.4c-.1-.3 0 0 0 .1v.4l-.2.8c-.1.3 0-.1 0 .1l-.2.4-.2.3c-.2.4.2-.2-.1.1l-.5.6-.2.1-.1.1-.2.1-1.4.8-.2.1-.4.2-.9.3c-.7.2-1.3 1.1-1 1.8.2.7 1 1.3 1.8 1 2.9-.9 5.9-2.6 6.7-5.8a5 5 0 00-1-4.5 4.5 4.5 0 00-4.2-1.6c-.8.1-1.3 1.1-1 1.8.1.9.9 1.2 1.7 1.1z" fill="#1B1B20"/><path d="M106.6 159.1c.1.1.2.2 0 0l.3.3.2.2c.1.1.2.3 0 0l.3.5.1.2c-.1-.2 0 .1 0 .1l.2.7c.1.4 0-.3 0 0v.6c0 .1-.1.4 0 .1v.2l-.1.3c-.1.2-.1.2 0 0l-.2.3-.2.3c-.1.1-.3.3 0 .1l-.5.5-.1.1-.2.1-.6.3c.3-.2 0 0-.1 0l-.3.1-.3.1c-.3.1.3 0-.1 0h-.7c-.8-.1-1.5.7-1.5 1.5 0 .9.7 1.4 1.5 1.5a6 6 0 006.1-4.1 6 6 0 00-2.5-6.8c-.7-.4-1.7-.2-2.1.5-.2 1 .1 1.8.8 2.3zM89.2 116.7c-.1-.8-.6-1.5-1.5-1.5-.8 0-1.6.7-1.5 1.5v.8c-.3.2-.4.4-.5.7-.6-.2-1.3-.2-1.7.3-.8 1-1.3 2-1.8 3.2-2.3 2.6-5 4.6-8.1 6.2-.6.3-.9 1.1-.7 1.7l.4.6c.3.6 1 .9 1.7.8.5.1 1 .1 1.5-.1 3.3-.3 6.4-1.8 8.7-4.2a13 13 0 003.5-10zM164.9 154.2l-.9-1.2-.2-.2a14.5 14.5 0 01-2.5-6c0-.8.1-1.7.5-2.5.3-.7.2-1.6-.5-2.1l-.1-.1v-.5c.2-1.7-2.5-1.9-2.9-.4a20 20 0 003.3 18.1c.5.6 1.6.5 2.1 0 .6-.6.5-1.5 0-2.1l-.5-.7c1.2 1 2.9-.9 1.7-2.3zM175.5 124.3l-.7-.2-.3-.1c.3.1-.1 0-.1-.1l-1.1-.6a2 2 0 01-.6-.4l-.3-.2-.2-.1-.9-.8-.9-1-.2-.3-.4-.6-.6-1.2-.1-.3-.3-.7c-.2-.7-.9-1.2-1.6-1.1l-.3.1-.4.1c-.8.3-1.3 1-1 1.8.7 2.5 1.4 5.1 3.3 7 .8.8 1.9 1.4 3 1.8.7.4 1.5.7 2.3.9.8.2 1.7-.3 1.8-1v-.1h.1c.5-.2.8-1 .7-1.5-.2-.7-.6-1.2-1.2-1.4zM179.9 135.4v-.1c0-1.6-.9-3.1-2.3-3.8-.3-.5-.9-.9-1.4-1-.6-.1-1.2-.1-1.8.3-.6.3-.9.8-1.2 1.4-.4 1.1.1 2.5 1 3.2l1.7 1 1.2.4.6.4c.3.2.8.3 1.2.2l.8-.5c.2-.7.3-1.1.2-1.5zM160.8 164l-.1-.2a3 3 0 00-.2-.9c-.2-.5-.5-.9-1-1-.5-.1-1.1 0-1.5.4l-.8 1.1-.3.9v.1c-.2.4-.3.8-.2 1.2l.1.1c0 .7.3 1.5.7 2l.5.5c.3.2.6.2 1 .2.6-.1 1.1-.5 1.2-1.1l.7-2.3.1-.4-.2-.6zM74.5 135.8l-.2-.5v-.1-.6l-.2-.4-.5-.5-.9-.4h-1.3l-.9.3c-.3.1-.5.3-.7.6a2 2 0 00-.6 1l-.1.3V136.3l.1.3c.1.2.1.5.3.7l.6.7.5.4.6.3.2.1.6.1h.4l.4-.1a2 2 0 001-.6c.3-.3.5-.7.6-1.1v-.1l.1-.5v-.7zM62.3 135.3c-.3-1.3-2-1.7-2.7-.5l-.7 1a52.8 52.8 0 00-7.5 3.8c-.9-.1-1.9-.1-2.8.2-.6.2-1.1.8-1.1 1.4l-1 .3-.5.2c-1.4.4-1.3 2.9.5 2.9 2.6 0 5.2-.5 7.6-1.6 1.1.1 2.2 0 3.3-.5 2.4-1 4-3.3 5.3-5.4.3-.6.1-1.4-.4-1.8zM74.2 115.2c-.5-.3-1-.2-1.6-.2h-1.4c-1.8-.1-3.6-.4-4.8-1.9-.5-.6-1.6-.5-2.1 0l-.1.1-.9-.8a6.6 6.6 0 00-3.8-1.7c-.8-.1-1.5.8-1.5 1.5 0 .9.7 1.4 1.5 1.5 1.5.2 2.7 1.8 3.8 2.8a13 13 0 005.4 2.9c1.8.4 5.1 1 6.2-1 .5-1.1.4-2.6-.7-3.2zM156.9 48.9c-.2-.6-.5-1.2-.9-1.6a2 2 0 00-1.4-.6 3 3 0 00-.9.2l-.6.1c-.5.2-.9.5-1.2.9l-.5 1.2-.1.9.1.9.1.4.4.8.5.7.7.6c.3.2.6.3 1 .3s.7-.1 1-.3c.6-.3 1-.8 1.4-1.3l.4-.9.1-.5.1-1-.2-.8zM159.5 64.9c-.1-1.8-.4-3.7-1-5.5-.3-.9-.7-1.7-1.5-2.1a2.5 2.5 0 00-3.3.9l-.5 1.3c-.3.2-.5.6-.6.9-.9 3.8-1.3 7.7-1.1 11.6.1 1.7-.1 4 1.3 5.2 1.7 1.6 4 .3 4.9-1.5 1.5-3.3 2.1-7.2 1.8-10.8zM174.9 148.7l.2-.3.2-.3.2-.2.3-.3.1-.1c-.1.1-.1.1 0 0l.3-.2.3-.2c-.2.1 0 0 .1 0l.7-.2c.4-.1-.3 0 .1 0h.8c.1 0 .4.1.1 0l.8.2.2.1c-.1-.1-.2-.1-.1 0l.4.2.4.2c.1.1.1.1 0 0l.2.2.6.6.1.2.2.4c.4.6.5.8.6 1.4l.2.9.1.3c0-.1 0-.1 0 0v.5c0 .8.7 1.5 1.5 1.5s1.5-.7 1.5-1.5c-.2-3.3-2-6.6-5.2-7.7-2.8-1-6.4.2-7.6 3-.3.7-.2 1.6.5 2.1.8.1 1.9-.1 2.2-.8z" fill="#1B1B20"/><path d="M183.8 148.3a5 5 0 012.6-.8h.8l.6.1.9.2.5.2c.4.2.9.4 1.2.7l.1.1.3.3.5.5c.5.6.9 1.4 1.2 2.2.2.8 1.1 1.3 1.8 1 .8-.2 1.3-1.1 1-1.8a9 9 0 00-4.8-5.6 8.8 8.8 0 00-8.2.5c-.7.4-.9 1.3-.5 2.1.4.5 1.3.8 2 .3z" fill="#1B1B20"/><path d="M194.4 147l.4-.6.1-.1.2-.2 1-1.1.1-.1.3-.2.6-.3c.1-.1-.2 0 .1 0l.3-.1h.2c-.3.1 0 0 .1 0h.6c-.2 0-.2 0 0 0l.3.1.3.1c.2 0 .2.1 0 0l.5.3.3.2c-.1-.1-.1-.1 0 0l.5.5c.1.1-.2-.3 0 0l.2.2.1.3c.2.3-.1-.2 0 .1.3.7 1 1.3 1.8 1 .7-.2 1.3-1.1 1-1.8a6 6 0 00-5.6-3.9c-2.8 0-4.6 2.2-6.2 4.3-.5.6-.1 1.7.5 2.1 1 .2 1.8-.1 2.3-.8zM147.1 182.4c1.7-.1 3.3-1 4.5-2.2 1.2-1.3 2-3 2.6-4.6.4-1 .7-2 .2-3.1a4 4 0 00-1.9-1.7 5.7 5.7 0 00-5.1.1c-.7.3-1 1.4-.5 2.1.5.7 1.3.9 2.1.5.3-.1-.2 0 .1-.1l.4-.1h.2-.1.9.1l.4.1c.4.1-.2-.1.1.1l.3.2.1.1.2.2-.1-.1c.1.1.1.1 0 0v-.1.1l-.1.2-.2.5-.2.4-.1.2-.8 1.7-1 1.4-.6.6-.1.1-.3.2-.4.2c.3-.1-.1 0-.1.1l-.5.1h-.2c.2 0 .2 0 0 0-.8.1-1.5.6-1.5 1.5.1.5.7 1.3 1.6 1.3z" fill="#1B1B20"/><path d="M152.5 171c.8-1.1 1.4-2.3 1.8-3.6.4-1.2.7-2.6.7-3.8-.1-1.6-1-2.8-2.4-3.4-1.4-.5-2.8-.1-4.1.4-.7.3-1.3 1-1 1.8.2.7 1.1 1.3 1.8 1l1.6-.5c.4-.1-.2 0 .2 0h.3c.4 0-.3-.1.1 0l.2.1c.3.1-.2-.1.1 0l.2.1.1.1c-.1-.1-.1-.1 0 0-.1-.3 0 .1 0 .2 0-.1 0-.1 0 0v.8s-.1.4 0 .1l-.1.4-.2.7-.5 1.4-.1.4-.1.1-.3.7-.8 1.4c-.5.6-.1 1.7.5 2.1.8.5 1.6.2 2-.5z" fill="#1B1B20"/><path d="M150.5 160.6c1.7-2.5 2.4-6 .7-8.6a6 6 0 00-3.3-2.6c-1.7-.5-3.4 0-4.4 1.4-.8 1.1-.9 2.5-1.4 3.8-.3.7.3 1.7 1 1.8.9.2 1.5-.3 1.8-1l.5-1.8.3-.8c-.1.3 0 0 0-.1l.1-.2.2-.2c-.2.1.4-.1.1 0l.3-.1c-.2 0-.1 0 0 0h.4c-.4 0 .2.1.2.1.1 0 .4.2.1 0l.5.2.2.1c-.1-.1-.1-.1 0 0l.7.7.1.1.3.5c.2.4-.1-.3.1.1l.2.5.1.4v.4c0 .8 0 1.1-.3 1.9l-.9 1.9c-.4.7-.2 1.7.5 2.1.6.3 1.4.1 1.9-.6zM89.7 65.8a40 40 0 00-2.6 7.6c-.5 2.4-1.1 6.2 1.2 7.8 1.2.9 2.8.6 3.7-.7.7-1 1.1-2.3 1.5-3.5.8-2.5 1.2-5.1 1.1-7.7 0-1.2 0-2.6-.8-3.6-.9-1.2-2.5-1.2-3.5-.1-.9 1-1.2 2.5-1.5 3.8l-.8 4c-.2 1.3-.5 2.6-.4 3.9.1 1.3.6 2.9 2 3.2 1.6.4 2.3-1.3 2.6-2.5a58.5 58.5 0 001-8.8c0-.8 0-1.7-.8-2.2-.8-.6-1.7-.4-2.3.3-.5.5-.7 1.3-.8 2l-.4 2.3c-.2 1.6-.4 3.2-.4 4.8-.1 1.9 2.9 1.9 3 0a27 27 0 01.8-6.9c.1-.3.1-.3 0-.2l.1-.1-.7.4h.1-.8.1l-.7-.4.1.1-.4-.7v2.3l-.2 2.6-.4 2.3-.3 1.3-.2.6c0 .4-.4 0 .4-.2h.8c.8.2.3.5.3.1l-.1-.2v-.5l.2-1.8.7-3.9c.3-1.1.5-2.4 1-3.4-.2.4.1-.3.2-.2l-1.2-.1.1.4.1 1.7c0 2.5-.4 4.9-1.2 7.3l-.6 1.5-.2.3-.1.1c-.2.2-.2.3 0 .1l.4-.2-.2-.6-.1-.7a28.9 28.9 0 012.6-10.1c.3-.7.2-1.6-.5-2.1-.5-.3-1.5-.1-1.9.6zM92.7 53c-.7 1.3-1 2.8-.9 4.2 0 .5.1.9.3 1.3.2.5.8.9 1.3 1.1.9.2 1.9-.2 2.5-.9a6.1 6.1 0 001.3-4.1c0-1-.2-2-1.1-2.6-.9-.6-2.1-.3-2.8.5a7 7 0 00-1.3 4.7c0 .4.1.8.4 1.1.3.3.7.5 1.1.4.7 0 1.6-.7 1.5-1.5v-1.4l-.1.4.4-1.6-.2.4.3-.6-.2.3.2-.3-.3.2.2-.1-.4.2h.1l-.4.1h.1l-.4-.1h.1l-.4-.2.1.1-.3-.2-.2-.3.1.2-.2-.4.1.6-.1-.4v1.4l.1-.4-.3 1.2.2-.4-.5.9.2-.3-.3.3.3-.2-.3.2.4-.2-.2.1.4-.1h-.2l.4.1h-.1l.4.2-.1-.1.3.2-.1-.1.2.3-.1-.2.2.4-.1-.4.1.4v-1.5l-.1.4.4-1.6-.2.4.2-.5c.4-.7.2-1.7-.5-2.1-.1-.4-1.1-.2-1.5.5zM92.5 33.8a43.7 43.7 0 00-.3 10.8c.1 1.1.2 2.3 1 3.1.9.9 2.2 1 3.3.5a4 4 0 001.9-2.5c.6-1.9.7-4.1.5-6-.2-2.1-.7-4.1-1.8-5.9-.5-.9-1.2-2.1-2.3-2.4-1.3-.3-2.2.6-2.6 1.8a19.6 19.6 0 00.1 10.3c.3 1.1.7 2.6 2.1 2.7 2.6.1 3.4-3.7 3.3-5.6-.1-2.3-.6-4.9-2-6.8-.4-.5-1-.9-1.7-.7-.6.2-1.1.8-1.1 1.4l.4 11.8 2.9-.4c-.8-2.8-.9-5.6-1-8.4-.1-1.9-3.1-1.9-3 0 .1 3.1.3 6.2 1.1 9.2.4 1.6 3 1.3 2.9-.4l-.4-11.8-2.8.8a9.6 9.6 0 011.5 4.4v2.2l-.2.8-.3.5c-.2.4-.3-.1.3 0l.8.2-.1-.1.5.5c0 .1 0 .1 0 0l-.1-.4-.2-.7-.3-1.2-.3-2.7.1-2.8.2-1.2.2-.7c.1-.2.1-.1 0 0l-.7.4c-.6-.3-.8-.3-.7-.1l.3.4.3.6.6 1.2c.4.9.6 1.9.7 2.8l.1 2.9c-.1.9-.1 2-.5 2.9 0 0-.4.7-.4.5l.4.2-.1-.5-.1-3.5c-.1-2.4 0-4.9.4-7.3.1-.8-.2-1.6-1-1.8-.8-.2-1.8.2-1.9 1zM33 157.1v-.9-.7c0 .2 0 .2 0 0v-.1l.1-.4.1-.4c.1-.3-.1.2 0-.1.1-.2.2-.5.4-.6-.1.2-.1.2 0 0l.1-.1.3-.3c.2-.2-.2.1.1 0l.3-.2.2-.1-.2.1.4-.1h.2.2c.3 0-.3-.1 0 0l.3.1c.3.1-.2-.1 0 0l.3.2.1.1c.1.1.1.1-.1 0l.2.2.4.5.1.1.2.3.7 1.2c.4.7 1.4 1 2.1.5.7-.4.9-1.3.5-2.1-.6-1-1.2-2.1-2.2-2.9a4.4 4.4 0 00-4.1-1 5.2 5.2 0 00-3.2 2.6 7.9 7.9 0 00-.8 4.3c.1.8.6 1.5 1.5 1.5 1.1-.2 1.9-.8 1.8-1.7z" fill="#1B1B20"/><path d="M39.7 151.7c.4-.6.9-1.1 1.6-1.4l.2-.1.4-.1.3-.1h1.3c1.9.4 3.4 1.7 4.5 3.2.5.7 1.3 1 2.1.5.6-.4 1-1.4.5-2.1a10.2 10.2 0 00-6.7-4.6c-2.6-.4-5.4.7-6.8 3.1-.4.7-.2 1.6.5 2.1s1.7.2 2.1-.5z" fill="#1B1B20"/><path d="M49.5 149.2c0-.1.2-.5 0-.3l.1-.2c-.1.1-.1.1 0 0s.1-.1 0 0l.2-.1.2-.1c-.1.1-.1.1 0 0 .7-.1 1.4-.1 2.2.1 1.8.4 3.6.9 5.4 1.6.8.3 1.6-.3 1.8-1 .2-.9-.3-1.5-1-1.8-2.1-.9-4.4-1.5-6.7-1.8a5.4 5.4 0 00-3.3.5c-1 .5-1.8 1.5-1.9 2.5-.1.8.2 1.6 1 1.8.8 0 1.8-.4 2-1.2zM25.6 155.6l.1-.5.1-.3c.1-.2-.1.3 0 .1l.3-.4c.1-.2-.2.2 0 0l.2-.2.2-.2c.2-.2-.2.1 0 0l.4-.3c.1 0 .3-.1.1 0h.1l.5-.1h-.1.5-.2.1l.5.1c.3.1-.3-.2 0 0l.2.1.2.1c.2.1 0 .1 0 0l.4.4.2.2-.1-.1.1.1.1.2c0 .1.2.4 0 0 .1.4.3.7.7.9.3.2.8.3 1.2.2.7-.2 1.4-1.1 1-1.8a5 5 0 00-5.1-3.3 5 5 0 00-4.5 4.1c-.1.4-.1.8.2 1.2.2.3.5.6.9.7.5 0 1.5-.4 1.7-1.2zM101.9 176.5c2.8.1 5-2 6-4.4.9-2 2.1-5.7-.9-6.6-.8-.2-1.7.3-1.8 1-.2.8.2 1.6 1 1.8.1 0 .1 0 0 0l-.3-.2-.1-.1.1.1-.1-.2.1.2c.1.2 0-.3 0-.1v.5c0 .3.1-.3 0 0l-.3 1.2-.2.7-.1.2-.1.3-.7 1.2-.1.1-.3.3-.5.4c.2-.1 0 0-.1 0l-.3.2-.3.1c-.1.1.2-.1 0 0l-.7.2c-.2 0 .3 0 0 0h-.4c-.8 0-1.5.7-1.5 1.5.1.9.7 1.6 1.6 1.6zM138.3 151v-.2c-.1.3-.1.3 0 .2l.1-.3.1-.3v-.1l-.1.1.1-.3.2-.3c.1-.2-.2.2 0 0l.2-.2.2-.2.1-.1-.1.1.5-.3c.3-.1-.3.1-.1 0l.3-.1.3-.1h-.2H140.5h-.2l.3.1h.1l-.2-.1.4.2c-.4-.2-.2-.1-.1 0l.2.2-.1-.2.1.1.1.2.1.1-.1-.2.1.3v-.1.1l-.1.3c-.3.7.3 1.7 1 1.8.8.2 1.6-.3 1.8-1 .6-1.8-.5-3.8-2.2-4.5a4.5 4.5 0 00-5 1.3c-.8.9-1.2 2-1.3 3.2-.1.8.7 1.5 1.5 1.5.7.3 1.3-.4 1.4-1.2zM201.5 141.8l.1-1.6c-.1.4 0 0 0-.1l.1-.4.2-.8.1-.3c.1-.3-.1.3 0-.1l.3-.6.3-.4c-.2.2-.1.1 0 0l.5-.5-.1.1.1-.1.3-.2.3-.1c-.2.1-.2.1-.1 0h.1l.6-.2h-.1.9c.3 0-.3-.1 0 0l.6.2-.2-.1.1.1.3.2c-.1 0-.3-.2 0 0l.2.3c.5.6 1.6.6 2.1 0 .6-.6.5-1.5 0-2.1-1.6-2-4.8-1.9-6.8-.5-2.3 1.6-3 4.6-3.1 7.3 0 .8.7 1.5 1.5 1.5 1-.1 1.7-.7 1.7-1.6zM28.5 106.3l.7-.2.4-.1h-.1H30.6l.3.1.8.2.2.1c-.2-.1-.2-.1 0 0l.3.2.7.4.1.1.3.3.2.3c.1.1.1.1 0 0l.1.2.4.7c.2.3-.1-.3 0 .1l.1.4.2.8V110.9l-.2.7-.1.4-.1.2c-.4.7-.2 1.7.5 2.1.7.4 1.7.2 2.1-.5a7 7 0 000-6.6c-.9-2-2.9-3.4-5.1-3.7a8.1 8.1 0 00-3.8.3c-.7.3-1.3 1-1 1.8.3.4 1.2 1 1.9.7z" fill="#1B1B20"/><path d="M37.2 110.5l.7-.2.4-.1c-.4 0-.1 0 0 0h.9l.3.1.7.2.2.1c.2.1.1.1-.1 0l.3.1.6.4.1.1.3.3.2.2.1.2c-.1-.2-.1-.2 0 0l.4.6.1.3c.1.2.1.1 0-.1l.1.2.2.7.1.3v-.1 1c0 .1 0 .4 0 0l-.1.4-.2.8c-.3.7.3 1.7 1 1.8.9.2 1.6-.3 1.8-1 .9-2.5.2-5.6-1.7-7.5a7.4 7.4 0 00-7.5-1.7c-.7.3-1.3 1-1 1.8.5.8 1.3 1.4 2.1 1.1z" fill="#1B1B20"/><path d="M46.2 115.2c.4-.2-.3.1.1-.1l.4-.1h.8c.2 0-.2-.1.1 0l.8.2c.4.1-.2-.1.1.1l.4.2.3.2.2.2.2.1.3.3.3.3.1.1c.3.5.5.8.6 1.3.2.7.3 1.1.3 1.7.1 1.3-.1 2.4-.3 3.6-.2.8.2 1.7 1 1.8.8.2 1.7-.2 1.8-1 .7-3.2.8-6.8-1.3-9.5-1.8-2.3-5-3.4-7.7-2-.7.4-.9 1.4-.5 2.1.4.7 1.3.9 2 .5z" fill="#1B1B20"/><path d="M53.6 120.5l.5.4c.1.1.1.1 0 0l.3.2.9.8.4.5.2.2c.1.1-.1-.2 0 .1l.7 1 .5 1c.1.1.1.3 0 .1l.1.2.2.6a16.4 16.4 0 00.4 1.4v.1l.1.7c0 .8.7 1.5 1.5 1.5s1.6-.7 1.5-1.5c-.2-4-2.4-7.7-5.8-9.9-.7-.4-1.7-.2-2.1.5-.3.8-.1 1.6.6 2.1zM33.8 42.1c-4.1 2.9-7.9 6.1-11.7 9.4-1.7 1.5-3.5 2.9-5 4.4-.6.6-.9 1.5-.9 2.3.1 2.1 1.7 3.9 2.9 5.5 1.8 2.2 3.7 4.1 5.7 6.1 1.8 1.8 3.7 3.6 5.4 5.5.6.6.9 1 1.3 1.8.2.3-.1-.2 0 .1l.3.7a4 4 0 002.6 1.6c1.1.1 2-.5 2.8-1.2a80 80 0 003.2-2.8l6.1-5.4 3-2.6c1-.9 2.1-1.7 2.9-2.7 1.4-1.7 1.1-3.9.1-5.8-1.1-2-2.9-3.7-4.4-5.5l-3.6-4.4-4.6-5.4c-.8-.9-1.6-2-2.8-2.5-1.1-.3-2.3.1-3.3.9-1.6 1.1-.1 3.7 1.5 2.6.4-.2.6-.5 1-.4.4.2.7.7 1 1l2.2 2.5 3.2 3.8 5.9 7c1.2 1.4 2.8 3.3 1.1 4.9l-5.3 4.6-5.2 4.5-2.6 2.3-1.3 1.1-.5.4c-.2 0-.7-.5-.4-.1.2.2.1.1 0-.1l-.2-.5-.5-.8-1.7-2.1-4.6-4.8-5-5.2-1.8-2.3-.7-1.1-.3-.5-.2-.3-.2-.5c-.1-.3 0 .2 0-.2 0-.2 0 0-.1 0 .7-.4 1.5-1.3 2.1-1.8l2.5-2.2c3.7-3.3 7.5-6.5 11.5-9.3 1.6-1 .1-3.7-1.4-2.5z" fill="#1B1B20"/><path d="M13.9 56.7l-.1.1.4-.2c-.4.2-.8.3-1.3.3l.4-.1h-1.4l.4.1c-.4 0-.7-.1-1-.3-.4-.1-.8 0-1.2.2-.3.2-.6.5-.7.9-.1.4-.1.8.2 1.2.2.3.5.6.9.7.7.3 1.6.4 2.4.3.9 0 1.8-.3 2.6-.6.3-.1.6-.6.7-.9.1-.4.1-.8-.2-1.2-.2-.3-.5-.6-.9-.7l-.4-.1-.8.3z" fill="#1B1B20"/><path d="M6.6 59C10.2 64 14 69 18 73.8l5.9 7c1.9 2.2 3.8 4.6 5.9 6.6 1.9 1.8 4.3 2.9 6.9 1.6 1.2-.6 2.3-1.7 3.3-2.6l4-3.4 7.3-6.2 6.2-4.9c1.1-1 2.2-2 3.1-3.2.8-1 2.2-2.4 2.1-3.8-.1-1.7-1.7-2-3-2.3-1.7-.4-3.2-1.1-4.7-1.9-1.7-.9-3.2 1.7-1.5 2.6a24 24 0 003.3 1.5l1.7.6.9.2c.2 0 1.5.4.6-.1-.6-.3-.3-.3-.7.2l-.5.7-1.2 1.4-2.5 2.3-5.6 4.4c-2.2 1.7-4.2 3.5-6.3 5.3l-6.5 5.5c-.9.7-1.8 1.5-2.9 1-1.1-.4-1.9-1.4-2.6-2.2L20.6 71.9c-3.9-4.7-7.6-9.6-11.2-14.5-1.4-1.4-4 .1-2.8 1.6z" fill="#1B1B20"/><path d="M9 58.1a2040 2040 0 0115.3-14.5c2.2-2.1 4.4-4.2 7-5.8 1.1-.7 3-1.4 3.1.5.1 1.3-.2 2.6.2 3.9.6 1.8 3.5 1 2.9-.8-.5-1.5.1-3-.3-4.5a3.9 3.9 0 00-3.3-2.8c-3.4-.5-6.9 2.9-9.2 5C18.6 44.5 12.8 50.3 6.9 56c-1.4 1.3.7 3.4 2.1 2.1zM33.1 82.4l.2 4.2c0 .4.2.8.4 1.1.3.3.7.5 1.1.4.8 0 1.5-.7 1.5-1.5l-.2-4.2c0-.4-.2-.8-.4-1.1-.3-.3-.7-.5-1.1-.4-.8 0-1.5.7-1.5 1.5zM29.3 58.3c3.1 3.6 6.4 7.1 9.6 10.6l-.4-1.1v.1l.4-1.1v.1l2.6 1.1c0-.8-.7-1.5-1.5-1.5s-1.5.7-1.5 1.5c0 .6.4 1.2.9 1.4.5.2 1.3.2 1.6-.3.7-.9.6-1.7-.2-2.5l-1.3-1.4-2.8-3c-1.8-2-3.6-3.9-5.3-6-.5-.6-1.6-.5-2.1 0-.6.6-.5 1.5 0 2.1z" fill="#1B1B20"/><path d="M31.9 57.8c0-.1.2-.4 0-.1l.2-.4.4-.8.2-.3.1-.1.6-.7.1-.1.3-.2.3-.2.2-.1c-.1.1-.2.1 0 0l.7-.2c.3-.1-.2 0 .1 0h.6l.4.1.3.1s.2.1 0 0l.1.1.4.2.1.1.1.1.2.4c.1.1.2.4.1.1l.1.4.1.4c-.1-.3 0 0 0 .2V57.4c0-.3 0-.1 0 0l-.1.4-.1.2c0 .2.1-.2 0 0l-.2.4-.1.2-.6.6-.1.1c-.2.1.2-.1 0 0l-.4.2-.4.2s-.2.1-.1 0l-.2.1c-.7.3-1.3 1-1 1.8.2.7 1.1 1.3 1.8 1a7.1 7.1 0 003.7-2.9 6 6 0 00.5-4.7 4.7 4.7 0 00-3.6-3.1c-1.6-.3-3.3 0-4.6.9a9.5 9.5 0 00-3.2 4.4c-.3.7.3 1.7 1 1.8 1 .1 1.7-.4 2-1.2zM21.6 99.4l-.1.4c-.1.1-.1.1 0 0l-.1.1s.5-.2 0 0c.2-.1-.1 0-.1 0 0-.1.5.1.2 0l.3.1s.3.1.1 0l.3.1a12.3 12.3 0 012.7 1.5l.2.1.5.5.2.2.1.1.4.6.2.4c.1.1.1.1 0 0l.2.7.1.3V105.3c-.1.8.8 1.5 1.5 1.5.9 0 1.4-.7 1.5-1.5.4-2.8-1.7-5.3-3.9-6.7l-1.6-.9a12 12 0 00-2-.8c-.8-.2-1.6-.1-2.4.3-.8.5-1.2 1.2-1.3 2.1-.1.8.8 1.5 1.5 1.5.9 0 1.4-.6 1.5-1.4zM11.8 83.5A79.3 79.3 0 005 99c-.6 1.8 2.3 2.6 2.9.8 1.7-5.1 3.9-10 6.5-14.7.9-1.7-1.7-3.3-2.6-1.6zM5.3 77.4l-3.9 3.9c-.6.6-.6 1.6 0 2.1.6.6 1.6.6 2.2 0l3.9-3.9c.6-.6.6-1.6 0-2.1-.6-.6-1.6-.6-2.2 0zM35.1 36.1c9.3 7.8 17.7 16.6 25.1 26.2.5.6 1.3 1 2.1.5.6-.4 1-1.4.5-2.1a185.2 185.2 0 00-25.6-26.8c-1.4-1.2-3.6.9-2.1 2.2zM62.2 51.7c1.9 0 1.9-3 0-3s-1.9 3 0 3zM24 3.8c3.7 8.5 5.3 17.7 9 26.2.8 1.8 3.4.2 2.6-1.5-3.7-8.5-5.3-17.7-9-26.2C25.9.5 23.3 2 24 3.8z" fill="#1B1B20"/><path d="M32.6 9.4l.4 18.3c.1 1.9 3.1 1.9 3 0l-.4-18.3c-.1-1.9-3.1-1.9-3 0z" fill="#1B1B20"/><path d="M25.4 3.9l6 5.7c1 .9 2.3 2.3 3.6 1 .6-.6.8-1.1 1.4-1.8 2.5-2.6 5.9-4.5 7.8-7.6 1-1.6-1.6-3.1-2.6-1.5s-2.9 3.1-4.5 4.4a28.5 28.5 0 00-4.5 4.7l.5-.5-.2.1 1.2-.2h-.2l.7.4c-1.3-1-2.4-2.2-3.6-3.3l-3.6-3.4c-1.3-1.4-3.4.7-2 2z" fill="#1B1B20"/><path d="M36 30.4c1.8-2.1 2.7-4.8 3.5-7.4.8-2.5 1.4-5 2-7.6l2-8.2c.5-2 1.3-4 1.7-6.1.2-1-.4-1.9-1.4-1.9h-5.7c-4 .1-8.1.7-12.2 1.1-1.9.2-1.9 3.2 0 3 4-.4 8.1-1 12.2-1.1h5.7A23 23 0 0142.4.3c-.4 1.9-1.2 3.8-1.6 5.8l-1.9 7.8-1.9 7.4c-.7 2.4-1.4 5.1-3 7-1.3 1.5.8 3.6 2 2.1zM43.3 33L48 21.8c.3-.7.2-1.6-.5-2.1-.6-.4-1.7-.2-2.1.5l-4.7 11.2c-.3.7-.2 1.6.5 2.1.7.4 1.8.3 2.1-.5zM30.6 32.5l-6.5-7.8c-.5-.6-1.6-.6-2.1 0-.6.6-.5 1.5 0 2.1l6.5 7.8c.5.6 1.6.6 2.1 0s.5-1.4 0-2.1z" fill="#1B1B20"/><path d="M122.5 57c0 3-.9 5.7-2.2 7.6-1.4 2-3 2.9-4.8 2.9-1.7 0-3.4-1-4.8-2.9a13.3 13.3 0 01-2.2-7.6c0-3 .9-5.7 2.2-7.6 1.4-2 3-2.9 4.8-2.9 1.7 0 3.4 1 4.8 2.9 1.3 1.9 2.2 4.6 2.2 7.6zM142.5 57c0 3-.9 5.7-2.2 7.6-1.4 2-3 2.9-4.8 2.9-1.7 0-3.4-1-4.8-2.9a13.3 13.3 0 01-2.2-7.6c0-3 .9-5.7 2.2-7.6 1.4-2 3-2.9 4.8-2.9 1.7 0 3.4 1 4.8 2.9 1.3 1.9 2.2 4.6 2.2 7.6z" stroke="#000" stroke-width="3"/></g><path d="M71 31c.4-.8.2-1.6.2-2.5 0-.7 0-1.5-.2-2.2 0-1.3-1.5-1.9-2.6-1.1l-9.9 8.4-.3.1c-.7.3-1.3 1-1 1.8.2.6.8 1.1 1.4 1.1.4.1.8 0 1.2-.2l5.6-1.5 3.2-.8c1.1-.3 2-.6 2.5-1.8.2-.4.1-.8-.2-1.2.1.1.1 0 .1-.1z" fill="#FFD000"/><path d="M55.4 37.8c5.3-4.2 10-9.3 15.7-13l-2.2-.9c.5 2.8 1.2 5.7 1.6 8.5v-.8.1l.5-.5c-1 .8-2.4 1.1-3.7 1.5a63.9 63.9 0 01-13 2.4c-1.9.1-1.9 3.1 0 3a66.1 66.1 0 0017.7-4c1.3-.7 1.5-1.7 1.2-3.1l-1.5-7.9c-.2-.9-1.4-1.4-2.2-.9-6 3.8-10.8 9-16.3 13.4-.6.5-.5 1.6 0 2.1.7.7 1.6.6 2.2.1zM54.5 30.3l6-5.3c.5-.5.5-1.6 0-2.1-.6-.6-1.5-.6-2.1 0l-6 5.3c-.5.5-.5 1.6 0 2.1.6.6 1.6.6 2.1 0zM57.3 45.6c1.3-.1 2.5-.1 3.8.1l-.4-.1 1 .2c.4.1.8.1 1.2-.2.3-.2.6-.5.7-.9.2-.7-.2-1.7-1-1.8-1.7-.3-3.4-.4-5-.3-.5 0-.9.1-1.2.4-.3.3-.5.7-.4 1.1 0 .7.5 1.5 1.3 1.5zM67.1 46.1c2 0 2-3 0-3-1.9 0-1.9 3 0 3z" fill="#000"/></g><defs><clipPath id="clip0"><path fill="#fff" d="M0 0h264v200H0z"/></clipPath><clipPath id="clip1"><path fill="#fff" transform="translate(1 -1)" d="M0 0h263.8v199.4H0z"/></clipPath></defs></svg>